<?xml version="1.0" standalone="no"?><!DOCTYPE svg PUBLIC "-//W3C//DTD SVG 1.1//EN" "http://www.w3.org/Graphics/SVG/1.1/DTD/svg11.dtd"><svg t="1742746024557" class="icon" viewBox="0 0 1024 1024" version="1.1" xmlns="http://www.w3.org/2000/svg" p-id="1618" xmlns:xlink="http://www.w3.org/1999/xlink" width="32" height="32"><path d="M99.29697 844.024242h825.40606v80.678788H99.29697zM37.236364 757.139394h31.030303c18.618182 0 24.824242 6.206061 24.824242 24.824242v198.59394c0 18.618182-6.206061 24.824242-24.824242 24.824242H37.236364c-18.618182 0-24.824242-6.206061-24.824243-24.824242v-198.59394c0-12.412121 12.412121-24.824242 24.824243-24.824242z m0 0" p-id="1619"></path><path d="M949.527273 757.139394h31.030303c18.618182 0 24.824242 6.206061 24.824242 24.824242v198.59394c0 18.618182-6.206061 24.824242-24.824242 24.824242h-31.030303c-18.618182 0-24.824242-6.206061-24.824243-24.824242v-198.59394c0-12.412121 6.206061-24.824242 24.824243-24.824242z m0 0M477.866667 645.430303l434.424242-434.424242c12.412121-12.412121 12.412121-24.824242 0-37.236364L763.345455 24.824242c-12.412121-12.412121-24.824242-12.412121-37.236364 0l-434.424243 440.630303-6.20606 6.206061-31.030303 173.769697c0 6.206061 0 18.618182 6.20606 24.824242 6.206061 6.206061 12.412121 6.206061 24.824243 6.206061l179.975757-24.824242c6.206061 0 12.412121 0 12.412122-6.206061z m0 0" p-id="1620"></path></svg>