<?xml version="1.0" standalone="no"?><!DOCTYPE svg PUBLIC "-//W3C//DTD SVG 1.1//EN" "http://www.w3.org/Graphics/SVG/1.1/DTD/svg11.dtd"><svg t="1742649643706" class="icon" viewBox="0 0 1024 1024" version="1.1" xmlns="http://www.w3.org/2000/svg" p-id="1593" xmlns:xlink="http://www.w3.org/1999/xlink" width="32" height="32"><path d="M461.118012 178.086957l0 267.13043401 95.403727-1e-8 0-267.130434 139.925466 0-190.807453-178.086957-190.807454 178.086957 146.285714 0z m50.881988 833.192546l190.807453-178.086956-139.925465 1e-8 0-267.130435-95.403727-1e-8L467.478261 833.192547l-139.92546601 0 184.44720501 178.086956z m381.614907-884.074534l0 763.229814-127.204969 1e-8 0 63.60248399 190.807453 0 0-890.434783-190.807453 0 0 63.602485 127.204969 0z m-763.229814 763.229814l0-763.229814 127.204969 0 0-63.602485-190.807453 0 0 890.434783 190.807453 0 0-63.60248399-127.204969-1e-8z" fill="#515151" p-id="1594"></path></svg>