<?xml version="1.0" standalone="no"?><!DOCTYPE svg PUBLIC "-//W3C//DTD SVG 1.1//EN" "http://www.w3.org/Graphics/SVG/1.1/DTD/svg11.dtd"><svg t="1756278518475" class="icon" viewBox="0 0 1024 1024" version="1.1" xmlns="http://www.w3.org/2000/svg" p-id="2609" xmlns:xlink="http://www.w3.org/1999/xlink" width="32" height="32"><path d="M109.2 859.2L253.4 715c6.2-6.2 6.3-16.3 0-22.6L115.1 553.1c-9.1-9.2-14.2-21.8-13.9-34.8 0.2-12.9 5.8-25.3 15.2-34.1 43.1-40.2 96.9-66.5 155.5-76 45.6-7.4 91.8-4.4 135.4 8.7 5.4 1.6 11.2 0.4 15.4-3.4l165.8-148.3c3.9-3.5 5.9-8.7 5.2-13.9-3-23.2-2.2-46.8 2.6-69.7 7.3-35.2 23.8-67.8 47.7-94.1 8.8-9.7 21.4-15.5 34.5-15.8 13.1-0.3 25.9 4.9 35.2 14.2L941 314.8c9.2 9.3 14.3 22.2 13.9 35.3-0.4 13.1-6.2 25.6-16 34.4-26.5 23.7-59.2 39.9-94.4 47-22.9 4.6-46.5 5.3-69.7 2.1-5.2-0.7-10.4 1.2-13.9 5.1L611.2 603.4c-3.8 4.2-5 10-3.5 15.3 12.8 43.7 15.5 89.9 7.7 135.5-9.9 58.5-36.6 112.1-77.1 155-8.9 9.4-21.3 14.8-34.2 15h-0.6c-12.7 0-25.1-5.1-34.1-14.2L332.3 771.9c-6.2-6.3-16.4-6.3-22.7 0L165.3 916.3c-7.8 7.8-18 11.7-28.3 11.7-10.1 0-20.3-3.8-28.1-11.5-15.8-15.6-15.4-41.6 0.3-57.3z" p-id="2610"></path></svg>