<?xml version="1.0" standalone="no"?>
<!DOCTYPE svg PUBLIC "-//W3C//DTD SVG 1.1//EN" "http://www.w3.org/Graphics/SVG/1.1/DTD/svg11.dtd"><svg t="1742649406972"
  class="icon" viewBox="0 0 1024 1024" version="1.1" xmlns="http://www.w3.org/2000/svg" p-id="1502"
  xmlns:xlink="http://www.w3.org/1999/xlink" width="32" height="32">
  <path
    d="M1012.622222 512c0 17.066667-17.066667 34.133333-34.133333 34.133333h-261.688889v147.911111c0 17.066667-17.066667 34.133333-34.133333 34.133334s-34.133333-17.066667-34.133334-34.133334V546.133333H375.466667v335.644445c0 17.066667-17.066667 34.133333-34.133334 34.133333s-34.133333-17.066667-34.133333-34.133333V546.133333H45.511111C22.755556 546.133333 11.377778 529.066667 11.377778 512s17.066667-34.133333 34.133333-34.133333h267.377778V125.155556c0-17.066667 17.066667-34.133333 34.133333-34.133334s34.133333 17.066667 34.133334 34.133334v352.711111h273.066666V324.266667c0-17.066667 17.066667-34.133333 34.133334-34.133334s34.133333 17.066667 34.133333 34.133334v153.6h261.688889c17.066667 0 28.444444 17.066667 28.444444 34.133333z"
    p-id="1503"></path>
</svg>