<?xml version="1.0" standalone="no"?><!DOCTYPE svg PUBLIC "-//W3C//DTD SVG 1.1//EN" "http://www.w3.org/Graphics/SVG/1.1/DTD/svg11.dtd"><svg t="1714459829707" class="icon" viewBox="0 0 1024 1024" version="1.1" xmlns="http://www.w3.org/2000/svg" p-id="2536" xmlns:xlink="http://www.w3.org/1999/xlink"><path d="M702.08 558.72a469.12 469.12 0 0 0-50.56-210.56 776.64 776.64 0 0 0-105.6-186.56A778.24 778.24 0 0 0 467.2 86.4c-10.88-9.6-37.76-27.2-58.88-44.16S384 28.16 384 50.88c22.72 248-217.92 433.28-261.44 540.16-83.2 208.32 27.2 366.4 224 397.12 26.24 4.16 29.44-4.8 9.92-20.16a192 192 0 0 1-75.52-224c29.44-86.08 103.04-111.04 131.52-250.56 4.48-22.4 22.08-27.52 40.64-11.2a768 768 0 0 1 173.44 234.88c25.92 74.88 38.4 151.36-101.44 248.96-20.48 14.4 8.64 27.52 35.2 24.96C746.88 972.8 930.56 800 928 653.44c0-53.76-51.2-168-112.32-256-13.76-19.52-28.8-16.32-32 6.4-6.08 64-8.32 110.72-56 164.16-15.04 18.88-26.88 13.44-25.6-9.28z" p-id="2537"></path></svg>