<?xml version="1.0" standalone="no"?><!DOCTYPE svg PUBLIC "-//W3C//DTD SVG 1.1//EN" "http://www.w3.org/Graphics/SVG/1.1/DTD/svg11.dtd"><svg t="1742741578617" class="icon" viewBox="0 0 1024 1024" version="1.1" xmlns="http://www.w3.org/2000/svg" p-id="1588" xmlns:xlink="http://www.w3.org/1999/xlink" width="32" height="32"><path d="M355.398 139.327c-15.858 0-30.395 2.643-43.611 7.929-18.501 10.572-33.699 24.448-45.593 41.628-11.894 17.18-17.841 37.664-17.841 61.451v99.115c0 15.858-1.322 31.717-3.965 47.575-2.643 15.858-6.608 30.395-11.894 43.611-13.215 29.074-31.717 52.861-55.504 71.363 23.788 18.501 42.289 42.289 55.504 71.363 5.286 13.215 9.251 27.752 11.894 43.611 2.643 15.858 3.965 31.717 3.965 47.575v99.115c0 15.858 2.643 30.395 7.929 43.611 5.286 13.215 12.555 25.109 21.805 35.681 9.251 10.572 20.484 18.502 33.699 23.788 13.215 5.286 27.752 7.929 43.611 7.929h7.929V960h-7.929c-23.788-2.643-46.254-7.929-67.398-15.858s-40.307-20.484-57.487-37.664-29.735-36.342-37.664-57.487c-7.929-21.145-13.215-40.968-15.858-59.469v-3.965a254.735 254.735 0 0 1 0-63.434V658.69c0-15.858-2.643-30.395-7.929-43.611-5.286-13.215-13.215-23.788-23.788-31.717v-3.965c-7.929-7.929-18.501-14.537-31.717-19.823v-3.965c-13.215-5.286-27.752-7.929-43.611-7.929H65.98v-71.363h3.965c15.858 0 30.395-2.643 43.611-7.929 26.431-13.215 44.932-33.038 55.504-59.469 5.286-13.215 7.929-27.752 7.929-43.611v-63.434a254.735 254.735 0 0 1 0-63.434c2.643-21.145 7.929-42.289 15.858-63.434 7.929-21.145 19.823-40.307 35.681-57.487s35.021-30.395 57.487-39.646S331.611 64 355.398 64h7.929v75.327h-7.929z m309.239 745.346c15.858 0 30.395-2.643 43.611-7.929 18.501-10.572 33.699-24.448 45.593-41.628s17.841-37.664 17.841-61.451V674.55c0-15.858 1.322-31.717 3.965-47.575 2.643-15.858 6.608-30.395 11.894-43.611 13.215-29.074 31.717-52.861 55.504-71.363-23.788-18.501-42.289-42.289-55.504-71.363-5.286-13.215-9.251-27.752-11.894-43.611-2.643-15.858-3.965-31.717-3.965-47.575v-99.115c0-15.858-2.643-30.395-7.929-43.611-5.286-13.215-12.555-25.109-21.805-35.681-9.251-10.572-20.484-18.501-33.699-23.788s-27.752-7.929-43.611-7.929h-3.965V67.965h3.965c23.788-2.643 46.254 0.661 67.398 9.912s40.307 22.466 57.487 39.646 29.735 36.342 37.664 57.487c7.929 21.145 13.215 40.968 15.858 59.469v3.965a254.735 254.735 0 0 1 0 63.434v63.434c0 15.858 2.643 30.395 7.929 43.611 5.286 13.215 13.215 23.788 23.788 31.717v3.965c7.929 7.929 18.502 14.537 31.717 19.823v3.965c13.215 5.286 27.752 7.929 43.611 7.929h7.929v71.363h-7.929c-15.858 0-30.395 2.643-43.611 7.929-26.431 13.215-44.932 33.038-55.504 59.469-5.286 13.215-7.929 27.752-7.929 43.611v63.434a254.735 254.735 0 0 1 0 63.434c-2.643 23.788-7.929 44.932-15.858 63.434-7.929 21.145-20.484 40.307-37.664 57.487s-36.342 29.734-57.487 37.664-43.611 11.894-67.398 11.894h-3.965v-71.363h3.963z" p-id="1589"></path></svg>