<?xml version="1.0" standalone="no"?>
<!DOCTYPE svg PUBLIC "-//W3C//DTD SVG 1.1//EN" "http://www.w3.org/Graphics/SVG/1.1/DTD/svg11.dtd"><svg t="1742649422234"
  class="icon" viewBox="0 0 1024 1024" version="1.1" xmlns="http://www.w3.org/2000/svg" p-id="1376"
  xmlns:xlink="http://www.w3.org/1999/xlink" width="32" height="32">
  <path
    d="M926.2 225.9H277c-11.5 0-20.9-9.4-20.9-20.9 0-11.5 9.4-20.9 20.9-20.9h649.2c11.5 0 20.9 9.4 20.9 20.9 0 11.5-9.3 20.9-20.9 20.9zM613.1 540.7H277c-11.5 0-20.9-9.4-20.9-20.9 0-11.5 9.4-20.9 20.9-20.9h336c11.5 0 20.9 9.4 20.9 20.9 0.1 11.6-9.3 20.9-20.8 20.9zM779.6 855.6H277c-11.5 0-20.9-9.4-20.9-20.9 0-11.5 9.4-20.9 20.9-20.9h502.6c11.5 0 20.9 9.4 20.9 20.9 0 11.5-9.3 20.9-20.9 20.9z"
    p-id="1377"></path>
  <path
    d="M116 987c-11.5 0-20.9-9.4-20.9-20.9V73.6c0-11.5 9.4-20.9 20.9-20.9s20.9 9.4 20.9 20.9v892.5c0 11.5-9.3 20.9-20.9 20.9z"
    p-id="1378"></path>
</svg>