<?xml version="1.0" standalone="no"?><!DOCTYPE svg PUBLIC "-//W3C//DTD SVG 1.1//EN" "http://www.w3.org/Graphics/SVG/1.1/DTD/svg11.dtd"><svg t="1727688134168" class="icon" viewBox="0 0 1024 1024" version="1.1" xmlns="http://www.w3.org/2000/svg" p-id="8813" xmlns:xlink="http://www.w3.org/1999/xlink" width="16" height="16"><path d="M135.72096 579.80928c-31.86688 76.7488-37.09952 149.9648-11.43296 163.584 17.63328 9.49248 45.3632-12.032 71.2704-51.44576 10.3424 42.93632 35.64032 81.73568 71.8848 112.9984-38.0672 14.35136-62.87872 37.82144-62.87872 64.34304 0 43.65824 67.25632 78.93504 150.21056 78.93504 74.8032 0 136.832-28.70784 148.26496-66.4064a426.30656 426.30656 0 0 1 17.87904 0c11.43808 37.69856 73.58976 66.4064 148.39296 66.4064 82.944 0 150.21056-35.39456 150.21056-78.93504 0-26.5216-24.81152-49.99168-62.88384-64.34816 36.2496-31.1296 61.66528-70.05696 71.8848-112.99328 25.9072 39.40864 53.51424 60.81536 71.15264 51.45088 25.66144-13.6192 20.55168-86.9632-11.43808-163.58912-25.04704-60.32896-59.1104-104.72448-85.0176-114.58048 0.36864-3.76832 0.60928-7.7824 0.60928-11.55072 0-23.23456-6.31808-44.88192-17.152-62.39744 0.24576-1.33632 0.24576-2.79552 0.24576-4.13696 0-10.7008-2.55488-20.79744-6.8096-29.43488-6.56896-156.7744-106.42432-281.20576-268.07296-281.20576S250.4192 200.9344 243.968 357.71392a67.56864 67.56864 0 0 0-6.8096 29.43488c0 1.3312 0.12288 2.79552 0.12288 4.13184-10.7008 17.51552-17.02912 39.04512-17.02912 62.39744 0 3.8912 0.12288 7.65952 0.4864 11.55584-25.78432 9.85088-59.96544 54.2464-85.0176 114.57536z" p-id="8814"></path></svg>