<?xml version="1.0" standalone="no"?><!DOCTYPE svg PUBLIC "-//W3C//DTD SVG 1.1//EN" "http://www.w3.org/Graphics/SVG/1.1/DTD/svg11.dtd"><svg t="1745160499480" class="icon" viewBox="0 0 1024 1024" version="1.1" xmlns="http://www.w3.org/2000/svg" p-id="1739" xmlns:xlink="http://www.w3.org/1999/xlink" width="32" height="32"><path d="M927.232 224.256h-200.704V160.768c0-52.736-42.496-95.744-95.232-95.744H393.216c-52.736 0-95.744 43.008-95.744 95.744v64H96.768c-17.408 0-31.744 14.336-31.744 31.744 0 17.92 14.336 31.744 31.744 31.744H926.72c17.408 0 31.744-14.336 31.744-31.744 0.512-17.92-13.312-32.256-31.232-32.256zM361.472 160.768c0-17.408 14.336-31.744 31.744-31.744h238.08c17.408 0 31.232 13.824 31.232 31.744v64H361.472V160.768zM757.76 958.976H266.752c-57.856 0-104.96-43.008-104.96-95.744V383.488c-0.512-11.776 6.144-22.528 16.896-28.672s24.576-6.144 35.84 0c10.752 6.144 17.408 16.896 16.896 28.672v479.232c0 17.408 15.872 31.744 34.816 31.744h491.52c9.216 0 18.432-3.584 24.576-9.216 6.656-6.144 10.24-14.336 10.24-22.528V385.024c-0.512-11.776 6.144-22.528 16.896-28.672s24.576-6.144 35.84 0c10.752 6.144 17.408 16.896 16.896 28.672v478.208c0.512 52.736-46.592 95.744-104.448 95.744z" p-id="1740"></path><path d="M496.64 788.992l3.584-90.624s-97.792-3.584-116.224-6.656c-5.12 6.656-24.576 54.784-13.824 73.728 5.632 9.728 12.8 19.456 25.088 22.016l101.376 7.168v-5.632z m-140.8-53.76c5.12-47.104 59.392-110.08 59.392-110.08l35.328 22.528-43.52-93.184-103.936-4.096 33.792 20.992s-18.944 30.72-27.648 46.08c-8.704 15.36 1.024 29.696 1.024 29.696l45.568 88.064z m314.88-198.656l-78.848 41.984s45.568 88.064 52.224 105.984c8.192 1.536 58.88-5.632 69.632-24.576 5.632-9.728 10.24-20.992 6.144-33.28l-44.544-93.184-4.608 3.072z m24.576 151.552c-42.496 18.944-122.88 2.56-122.88 2.56l1.536-42.496-57.344 84.992 48.64 94.208 1.024-40.448s35.328 1.536 52.736 1.024c17.408 0 24.576-15.36 24.576-15.36l51.712-84.48z m-325.12-179.2l75.264 48.64s52.224-84.48 64-99.328c-3.072-8.192-34.304-49.152-55.296-49.152-11.264 0-23.04 1.536-31.232 11.264L365.568 505.856l4.608 3.072z m115.712-97.28c37.376 28.16 64 107.52 64 107.52l-36.864 19.968 100.864 8.192 55.808-90.112-34.816 19.456s-16.384-32.256-25.6-47.104c-8.704-15.36-25.6-13.824-25.6-13.824l-97.792-4.096z" p-id="1741"></path></svg>