<?xml version="1.0" standalone="no"?><!DOCTYPE svg PUBLIC "-//W3C//DTD SVG 1.1//EN" "http://www.w3.org/Graphics/SVG/1.1/DTD/svg11.dtd"><svg t="1742649426690" class="icon" viewBox="0 0 1024 1024" version="1.1" xmlns="http://www.w3.org/2000/svg" p-id="1538" xmlns:xlink="http://www.w3.org/1999/xlink" width="32" height="32"><path d="M101.8 225.9H751c11.5 0 20.9-9.4 20.9-20.9 0-11.5-9.4-20.9-20.9-20.9H101.8c-11.5 0-20.9 9.4-20.9 20.9 0 11.5 9.3 20.9 20.9 20.9zM414.9 540.7h336c11.5 0 20.9-9.4 20.9-20.9 0-11.5-9.4-20.9-20.9-20.9h-336c-11.5 0-20.9 9.4-20.9 20.9 0 11.6 9.4 20.9 20.9 20.9zM248.4 855.6H751c11.5 0 20.9-9.4 20.9-20.9 0-11.5-9.4-20.9-20.9-20.9H248.4c-11.5 0-20.9 9.4-20.9 20.9 0 11.5 9.3 20.9 20.9 20.9z" fill="#515151" p-id="1539"></path><path d="M912 987c11.5 0 20.9-9.4 20.9-20.9V73.6c0-11.5-9.4-20.9-20.9-20.9-11.5 0-20.9 9.4-20.9 20.9v892.5c0 11.5 9.3 20.9 20.9 20.9z" fill="#515151" p-id="1540"></path></svg>