<?xml version="1.0" standalone="no"?>
<!DOCTYPE svg PUBLIC "-//W3C//DTD SVG 1.1//EN" "http://www.w3.org/Graphics/SVG/1.1/DTD/svg11.dtd"><svg t="1742658243556"
  class="icon" viewBox="0 0 1024 1024" version="1.1" xmlns="http://www.w3.org/2000/svg" p-id="1467"
  xmlns:xlink="http://www.w3.org/1999/xlink" width="32" height="32">
  <path
    d="M785.792 949.888V339.541333H42.666667v610.346667h743.125333zM85.333333 382.208h657.749334v524.970667H85.333333V382.208z"
    p-id="1468"></path>
  <path
    d="M638.08 245.76l-102.954667-75.221333 72.149334-107.477334 32.170666 23.509334-32.256 48.128c128.597333-35.328 269.013333 21.504 338.773334 147.541333a327.082667 327.082667 0 0 1 24.405333 259.456h-41.813333a285.525333 285.525333 0 0 0 16.725333-135.594667 282.197333 282.197333 0 0 0-33.365333-103.381333A269.226667 269.226667 0 0 0 842.666667 221.013333a258.176 258.176 0 0 0-90.709334-46.208 251.989333 251.989333 0 0 0-140.885333 1.28l49.493333 36.181334-22.528 33.578666z"
    p-id="1469"></path>
</svg>