<?xml version="1.0" standalone="no"?><!DOCTYPE svg PUBLIC "-//W3C//DTD SVG 1.1//EN" "http://www.w3.org/Graphics/SVG/1.1/DTD/svg11.dtd"><svg t="1742614262568" class="icon" viewBox="0 0 1024 1024" version="1.1" xmlns="http://www.w3.org/2000/svg" p-id="1134" xmlns:xlink="http://www.w3.org/1999/xlink" width="32" height="32"><path d="M1000.96 404.992v-248.32c0-21.504-17.408-39.424-38.912-39.424H62.976c-21.504 0-39.424 17.92-38.912 39.424v710.144c0 22.016 17.408 39.424 38.912 39.424h899.072c21.504 0 39.424-17.92 38.912-39.424V404.992z m-39.424-248.32v208.896h-609.28V156.672h609.28z m-648.192 0v208.896H62.464V156.672h250.88z m0 248.32v208.896H62.464V404.992h250.88z m-250.88 248.32h250.88v213.504H62.464V653.312z m899.072 214.016h-609.28V653.824h609.28v213.504z m0-253.44h-609.28V404.992h609.28v208.896z" fill="#515151" p-id="1135"></path></svg>