<?xml version="1.0" standalone="no"?><!DOCTYPE svg PUBLIC "-//W3C//DTD SVG 1.1//EN" "http://www.w3.org/Graphics/SVG/1.1/DTD/svg11.dtd"><svg t="1742573495841" class="icon" viewBox="0 0 1024 1024" version="1.1" xmlns="http://www.w3.org/2000/svg" p-id="1007" xmlns:xlink="http://www.w3.org/1999/xlink" width="32" height="32"><path d="M737.673809 863.903745 737.673809 800.13335 672.503531 800.13335 672.503531 863.949794ZM834.943157 863.949794c15.954367 0 29.006637-13.053294 29.006637-29.006637l0-34.808784-62.461587 0 0 63.769372M415.311891 223.865627l0 191.447287L223.864604 415.312914 223.864604 223.865627 415.311891 223.865627M450.120674 160.050206 189.05582 160.050206c-15.953344 0-29.006637 13.053294-29.006637 29.006637l0 261.063831c0 15.954367 13.053294 29.006637 29.006637 29.006637l261.063831 0c15.953344 0 29.006637-13.053294 29.006637-29.006637L479.126288 189.056843C479.127312 173.1035 466.074018 160.050206 450.120674 160.050206L450.120674 160.050206zM319.588759 319.589782m-31.907711 0a31.181 31.181 0 1 0 63.815421 0 31.181 31.181 0 1 0-63.815421 0ZM800.134373 223.865627l0 191.447287L608.688109 415.312914 608.688109 223.865627 800.134373 223.865627M834.943157 160.050206 573.879326 160.050206c-15.954367 0-29.006637 13.053294-29.006637 29.006637l0 261.063831c0 15.954367 13.053294 29.006637 29.006637 29.006637l261.063831 0c15.954367 0 29.006637-13.053294 29.006637-29.006637L863.949794 189.056843C863.950817 173.1035 850.897523 160.050206 834.943157 160.050206L834.943157 160.050206zM704.411241 319.589782m-31.907711 0a31.181 31.181 0 1 0 63.815421 0 31.181 31.181 0 1 0-63.815421 0ZM415.311891 608.687086l0 191.447287L223.864604 800.134373 223.864604 608.687086 415.311891 608.687086M450.120674 544.871665 189.05582 544.871665c-15.953344 0-29.006637 13.053294-29.006637 29.006637l0 261.063831c0 15.954367 13.053294 29.006637 29.006637 29.006637l261.063831 0c15.954367 0 29.006637-13.053294 29.006637-29.006637L479.126288 573.878303C479.127312 557.924959 466.074018 544.871665 450.120674 544.871665L450.120674 544.871665zM319.588759 704.410218m-31.907711 0a31.181 31.181 0 1 0 63.815421 0 31.181 31.181 0 1 0-63.815421 0ZM834.943157 544.871665l-35.579333 0 0 127.630842-63.815421 0L735.548402 544.871665 573.879326 544.871665c-15.954367 0-29.006637 13.053294-29.006637 29.006637l0 261.063831c0 15.954367 13.053294 29.006637 29.006637 29.006637l34.808784 0 0-63.815421 0-63.815421 0-63.815421 63.815421 0 0 63.815421L863.950817 736.317928l0-162.439626C863.950817 557.924959 850.897523 544.871665 834.943157 544.871665z" fill="#515151" p-id="1008"></path></svg>