<?xml version="1.0" standalone="no"?>
<!DOCTYPE svg PUBLIC "-//W3C//DTD SVG 1.1//EN" "http://www.w3.org/Graphics/SVG/1.1/DTD/svg11.dtd"><svg t="1742572800421"
  class="icon" viewBox="0 0 1024 1024" version="1.1" xmlns="http://www.w3.org/2000/svg" p-id="977"
  xmlns:xlink="http://www.w3.org/1999/xlink" width="32" height="32">
  <path
    d="M152.25 801.23h-48c-4.42 0-8-3.58-8-8V233.21c0-4.42 3.58-8 8-8h48c4.42 0 8 3.58 8 8v560.02c0 4.42-3.58 8-8 8zM472.31 801.23h-48c-4.42 0-8-3.58-8-8V233.21c0-4.42 3.58-8 8-8h48c4.42 0 8 3.58 8 8v560.02c0 4.42-3.58 8-8 8zM384.19 801.23c-4.42 0-8-3.58-8-8V233.21c0-4.42 3.58-8 8-8s8 3.58 8 8v560.02c0 4.42-3.58 8-8 8zM568.41 801.23h-48c-4.42 0-8-3.58-8-8V233.21c0-4.42 3.58-8 8-8h48c4.42 0 8 3.58 8 8v560.02c0 4.42-3.58 8-8 8zM920.4 801.23h-48c-4.42 0-8-3.58-8-8V233.21c0-4.42 3.58-8 8-8h48c4.42 0 8 3.58 8 8v560.02c0 4.42-3.59 8-8 8zM648.14 801.23h-16c-4.42 0-8-3.58-8-8V233.21c0-4.42 3.58-8 8-8h16c4.42 0 8 3.58 8 8v560.02c0 4.42-3.59 8-8 8zM311.85 801.23h-112c-4.42 0-8-3.58-8-8V233.21c0-4.42 3.58-8 8-8h112c4.42 0 8 3.58 8 8v560.02c0 4.42-3.58 8-8 8zM824.37 801.23h-112c-4.42 0-8-3.58-8-8V233.21c0-4.42 3.58-8 8-8h112c4.42 0 8 3.58 8 8v560.02c0 4.42-3.58 8-8 8z"
    p-id="978"></path>
</svg>