<?xml version="1.0" standalone="no"?>
<!DOCTYPE svg PUBLIC "-//W3C//DTD SVG 1.1//EN" "http://www.w3.org/Graphics/SVG/1.1/DTD/svg11.dtd"><svg t="1742632887371"
  class="icon" viewBox="0 0 1024 1024" version="1.1" xmlns="http://www.w3.org/2000/svg" p-id="1162"
  xmlns:xlink="http://www.w3.org/1999/xlink" width="32" height="32">
  <path
    d="M868.8 105.6 155.2 105.6c-28.8 0-51.2 25.6-48 54.4l75.2 600c1.6 17.6 12.8 32 28.8 38.4l281.6 118.4c11.2 4.8 25.6 4.8 36.8 0l281.6-118.4c16-6.4 27.2-20.8 28.8-38.4l75.2-600C920 129.6 897.6 105.6 868.8 105.6zM865.6 179.2l-70.4 558.4c-1.6 8-6.4 16-14.4 19.2l-259.2 108.8c-6.4 3.2-12.8 3.2-19.2 0l-259.2-108.8c-8-3.2-12.8-11.2-14.4-19.2L158.4 179.2c-1.6-14.4 9.6-27.2 24-27.2l659.2 0C856 153.6 867.2 166.4 865.6 179.2z"
    p-id="1163"></path>
  <path
    d="M716.8 252.8 331.2 252.8c-28.8 0-51.2 25.6-48 54.4l17.6 136c3.2 24 24 41.6 48 41.6l294.4 0c14.4 0 25.6 12.8 24 27.2l-9.6 80c-1.6 8-6.4 16-14.4 19.2l-120 51.2c-6.4 3.2-12.8 3.2-19.2 0l-120-51.2c-8-3.2-12.8-11.2-14.4-19.2l-3.2-28.8c-1.6-12.8-14.4-22.4-27.2-20.8-12.8 1.6-22.4 14.4-20.8 27.2l4.8 41.6c1.6 17.6 12.8 32 28.8 38.4l142.4 60.8c11.2 4.8 25.6 4.8 36.8 0l142.4-60.8c16-6.4 27.2-20.8 28.8-38.4l14.4-121.6c3.2-28.8-19.2-54.4-48-54.4l-300.8 0c-12.8 0-22.4-9.6-24-20.8l-11.2-88c-1.6-14.4 9.6-27.2 24-27.2l358.4 0c11.2 0 20.8-8 24-19.2l0 0C742.4 267.2 731.2 252.8 716.8 252.8z"
    p-id="1164"></path>
</svg>