<?xml version="1.0" standalone="no"?>
<!DOCTYPE svg PUBLIC "-//W3C//DTD SVG 1.1//EN" "http://www.w3.org/Graphics/SVG/1.1/DTD/svg11.dtd"><svg t="1742574120913"
  class="icon" viewBox="0 0 1024 1024" version="1.1" xmlns="http://www.w3.org/2000/svg" p-id="1232"
  xmlns:xlink="http://www.w3.org/1999/xlink" width="32" height="32">
  <path
    d="M813.333333 85.333333a104.064 104.064 0 0 1 103.509334 93.354667l0.490666 10.645333v624a104 104 0 0 1-93.354666 103.509334l-10.645334 0.490666H189.333333a104 104 0 0 1-103.509333-93.354666L85.333333 813.333333V189.333333a104.064 104.064 0 0 1 93.354667-103.509333L189.333333 85.333333h624z m0 52.010667H189.333333a52.010667 52.010667 0 0 0-51.413333 44.330667l-0.576 7.658666v624c0 26.133333 19.2 47.765333 44.330667 51.413334l7.658666 0.597333h624a51.989333 51.989333 0 0 0 51.413334-44.373333l0.597333-7.637334V189.333333a52.010667 52.010667 0 0 0-52.010667-52.010666z m9.152 570.410667v49.92H258.133333v-49.92h564.352z m-293.034666-425.173334l29.952 87.04-32.426667 24.64-3.093333-4.992c-19.050667-30.784-29.610667-42.026667-35.114667-46.272-4.16-3.072-26.197333-8.234667-59.989333-8.234666-14.976 0-22.464 0.426667-26.197334 0.661333a69.973333 69.973333 0 0 0-0.426666 5.824v226.133333c0 0.853333 0 1.493333 2.176 2.666667 2.944 1.386667 6.144 2.24 9.386666 2.496l6.08 0.256h46.421334v42.602667h-174.549334v-42.666667h43.669334c11.498667 0 15.146667-1.770667 16.064-2.346667 0.661333-0.341333 1.173333-0.746667 1.408-1.493333l0.170666-1.664V340.096a49.706667 49.706667 0 0 0-0.426666-4.906667 216.746667 216.746667 0 0 0-17.194667-0.512c-32.704 0-54.762667 4.416-61.333333 8.085334-5.738667 3.242667-15.637333 12.224-30.933334 36.437333l-5.994666 9.813333-2.986667 5.162667-36.117333-24.298667 33.706666-87.274666H529.429333zM817.92 509.418667v49.92H509.269333v-49.92H817.92z m0-182.784v49.92h-207.744v-49.92h207.765333z"
    p-id="1233"></path>
</svg>