<?xml version="1.0" standalone="no"?>
<!DOCTYPE svg PUBLIC "-//W3C//DTD SVG 1.1//EN" "http://www.w3.org/Graphics/SVG/1.1/DTD/svg11.dtd"><svg t="1742614649517"
  class="icon" viewBox="0 0 1024 1024" version="1.1" xmlns="http://www.w3.org/2000/svg" p-id="1131"
  xmlns:xlink="http://www.w3.org/1999/xlink" width="32" height="32">
  <path
    d="M122.368 165.888h778.24c-9.216 0-16.384-7.168-16.384-16.384v713.728c0-9.216 7.168-16.384 16.384-16.384h-778.24c9.216 0 16.384 7.168 16.384 16.384V150.016c0 8.192-6.656 15.872-16.384 15.872z m-32.768 684.544c0 26.112 20.992 47.104 47.104 47.104h750.08c26.112 0 47.104-20.992 47.104-47.104V162.304c0-26.112-20.992-47.104-47.104-47.104H136.704c-26.112 0-47.104 20.992-47.104 47.104v688.128z"
    p-id="1132"></path>
  <path
    d="M249.344 347.648h49.152v499.2h-49.152zM584.704 347.648h49.152v499.2h-49.152zM137.728 165.888h746.496v181.76H137.728z"
    p-id="1133"></path>
  <path d="M137.728 481.792h746.496v49.152H137.728zM137.728 664.576h746.496v49.152H137.728z" p-id="1134">
  </path>
</svg>