<?xml version="1.0" standalone="no"?>
<!DOCTYPE svg PUBLIC "-//W3C//DTD SVG 1.1//EN" "http://www.w3.org/Graphics/SVG/1.1/DTD/svg11.dtd"><svg t="1742574116722"
  class="icon" viewBox="0 0 1024 1024" version="1.1" xmlns="http://www.w3.org/2000/svg" p-id="1069"
  xmlns:xlink="http://www.w3.org/1999/xlink" width="32" height="32">
  <path
    d="M747.24 345.95c-11.47 0-20.76-9.3-20.76-20.76v-20.76H297.51v20.76c0 11.46-9.29 20.76-20.76 20.76S256 336.65 256 325.19v-41.51c0-11.46 9.29-20.76 20.76-20.76h470.49c11.47 0 20.76 9.3 20.76 20.76v41.51c-0.01 11.46-9.3 20.76-20.77 20.76z"
    p-id="1070"></path>
  <path
    d="M512 761.08c-11.47 0-20.76-9.3-20.76-20.76V283.68c0-11.46 9.29-20.76 20.76-20.76 11.47 0 20.76 9.3 20.76 20.76v456.65c0 11.45-9.29 20.75-20.76 20.75z"
    p-id="1071"></path>
  <path
    d="M581.19 761.08H442.81c-11.47 0-20.76-9.3-20.76-20.76s9.29-20.76 20.76-20.76h138.38c11.47 0 20.76 9.3 20.76 20.76s-9.29 20.76-20.76 20.76z"
    p-id="1072"></path>
</svg>