<svg xmlns="http://www.w3.org/2000/svg" width="841.38699" height="633.52516" viewBox="0 0 841.38699 633.52516" xmlns:xlink="http://www.w3.org/1999/xlink"><polygon points="333.04938 444.23808 355.05533 446.23006 382.38528 460.11012 386.89243 444.01311 390.8287 423.63392 382.62811 413.97572 368.46277 423.63392 338.8443 420.41453 333.04938 444.23808" fill="#fdadb0"/><polygon points="152.40428 413.34334 135.48917 462.79494 257.18243 428.0254 335.73575 449.91731 347.32556 424.80601 260.40182 388.10487 193.06126 415.46425 152.40428 413.34334" fill="#2f2e41"/><path d="m384.85477,422.76179l2.57553,1.93164-15.99094,30.26562s10.80194,6.30206,14.02136,6.30206,14.20328-62.32288,12.91553-71.52731c-1.28778-9.20441-9.6582-6.24866-9.6582-6.24866l-18.06863,38.1709,14.20535,1.10577.00003-.00003h-.00003Z" fill="#2f2e41"/><g><path id="uuid-2097ce6a-60e4-4070-b039-3848d94fc891-76" d="m228.18222,256.257l-15.11224,28.13992,11.03008,6.30862,15.88187-27.93314c2.49564-1.71921,4.54326-4.01111,5.97157-6.6839,3.66672-6.64076,3.21355-13.91261-1.01111-16.24542s-10.62051,1.15778-14.28502,7.79666c-1.5014,2.63351-2.35011,5.58839-2.47513,8.61728l-.00002-.00003Z" fill="#fdadb0"/><polygon points="116.77254 327.96739 193.45879 342.59038 240.76614 268.3044 221.91975 256.70985 185.53464 305.55446 116.3818 296.88759 116.77254 327.96739" fill="#e6e6e6"/></g><rect x="183.44386" y="255.97017" width="489.83293" height="205.51038" fill="#6c63ff"/><polygon points="102.40847 308.68269 110.7789 279.06425 131.38306 279.70811 138.46571 303.53166 102.40847 308.68269" fill="#fdadb0"/><polygon points="102.40847 308.68269 110.7789 279.06425 131.38306 279.70811 138.46571 303.53166 102.40847 308.68269" isolation="isolate" opacity=".1"/><g><circle cx="123.69866" cy="259.47642" r="27.36301" fill="#fdadb0"/><path d="m121.51489,222.68878l-.41397.71014c5.35251-1.06383,20.22495-1.75229,23.89124,2.2899s5.01947,10.05084,3.43988,15.27443c2.59781,1.51781,4.43277,4.27577,4.82916,7.25826s-.65451,6.12399-2.76572,8.26764c.81519-4.23003-1.46066-8.67944-4.97607-11.16934-3.51538-2.4899-8.04535-3.22218-12.3342-2.81789-7.78568.73396-15.14264,5.15804-19.44122,11.69083-3.56378,5.41609-5.45096,12.48875-11.12518,15.62523-1.17313.64847,1.90717,3.14102,1.11795,4.22446-1.2507,1.71698-.21567-1.03259,1.02145.69421s-.19412,3.89868.80481,5.77335c.99893,1.87469-.6525,7.03516-2.46902,8.13632-8.13425-8.06323-20.60754-18.59723-21.02197-30.04318-.41446-11.44595,2.21033-21.06422,9.74011-29.69463-5.28326-3.51299-6.52808-11.36983-3.60419-17.00052,2.92386-5.63071,9.12827-9.03575,15.41656-9.87898,4.89667-.65662,10.33621.24973,13.75897,3.81252,2.2677,2.36049,3.379,5.57018,4.42609,8.67146.49213,1.45761.98425,2.91521,1.47638,4.37282.29327.86864.58902,1.80397.33514,2.68492-.25391.88095-1.31445,1.58023-2.10623,1.11804h.00003v.00002Z" fill="#2f2e41"/><path d="m120.68365,242.66052l-.49615.3434c1.63574,5.0708-1.70358,10.33649-5.25916,14.30469-3.5556,3.9682-7.73792,8.05273-8.20932,13.35992-.53506,6.02399,3.98297,11.7764,2.95724,17.73651-.88113,5.11984-6.39868,8.94681-11.50269,7.97827,5.16541-4.4097,7.28024-12.06671,5.11032-18.50241-1.32755-3.93732-4.10535-7.50085-4.16858-11.65549-.06256-4.10934,2.547-7.71902,5.03824-10.98769,4.32224-5.67107,9.44083-11.8119,16.53006-12.57719h.00003l.00002-.00002Z" fill="#2f2e41"/></g><path d="m827.27051,458.72603H1.8806c-1.04297,0-1.8806.53003-1.8806,1.19s.83762,1.19,1.8806,1.19h825.38991c1.04303,0,1.88068-.52997,1.88068-1.19s-.83765-1.19-1.88068-1.19Z" fill="#3f3d56"/><polygon points="627.40222 91.27141 631.27551 67.0631 605.13055 56.41143 601.2572 93.20807 627.40222 91.27141" fill="#a0616a"/><g><path id="uuid-c40af7bd-5eb1-4e7e-b95c-4d1ae58f7257-77" d="m697.81061,246.55594c8.84338,5.78387,18.99591,5.90924,22.6759.28067s-.50616-14.8782-9.35345-20.66293c-3.50238-2.35925-7.51892-3.84543-11.71344-4.33415l-37.77917-24.03333-10.90021,17.96904,38.40082,21.78484c2.12994,3.64799,5.10278,6.7327,8.66962,8.99586h-.00006Z" fill="#a0616a"/><path d="m613.29883,95.39044h-.00006c-13.84869,1.13684-23.48486,14.26888-20.41449,27.82072l15.76288,69.57413,72.54736,42.41229,8.92889-22.69431-49.48102-36.83173-2.64899-58.54191c-.58527-12.93433-11.79047-22.7985-24.69458-21.7392Z" fill="#e6e6e6"/></g><g><polygon points="750.12225 342.41875 765.48499 365.39921 768.34467 372.59843 776.76831 377.9254 808.72229 363.09239 801.79956 347.933 781.05511 349.30232 772.53015 336.22349 750.12225 342.41875" fill="#a0616a"/><path d="m803.25049,358.95824l-.3186,3.16776-36.85876,9.91138s9.8421,13.09772,11.48792,15.82312,53.42773-28.54422,60.5614-34.33972.35248-11.37045.35248-11.37045l-41.55011,4.21716,6.32574,12.59073h0l-.00006.00003Z" fill="#2f2e43"/></g><path d="m580.16119,214.13753l-4.09241,9.67297s-8.92889,27.53079,36.83173,37.20377,69.57104,5.58057,69.57104,5.58057l78.87201,94.49759,20.09003-17.48578-62.83783-95.27023c-4.12866-6.25961-10.17981-11.00793-17.24164-13.52959l-94.65802-33.80051-26.53485,13.13121h-.00006Z" fill="#2f2e41"/><g><polygon points="700.73383 382.44127 710.84399 408.16865 712.10309 415.81206 719.19739 422.81242 753.5791 415.13295 750.04742 398.84614 729.48792 395.76137 723.94733 381.16572 700.73383 382.44127" fill="#a0616a"/><path d="m749.11438,409.92726l-.98663,3.02701-38.12445,1.82535s6.82343,14.8949,7.85034,17.90854,58.28491-16.49734,66.49017-20.63873,2.76849-11.03391,2.76849-11.03391l-41.49396-4.73816,3.49597,13.6499h.00006Z" fill="#2f2e43"/></g><path d="m558.36981,213.93201l-6.06061,8.57809s-14.59308,24.99422,28.05322,44.20085c42.6463,19.2066,66.7818,20.28458,66.7818,20.28458l56.91205,109.14026,23.35608-12.80063-45.2406-117.25558-44.09961-40.46733-79.70239-11.68027.00006.00003Z" fill="#2f2e41"/><g><polygon points="230.85333 582.96351 240.96349 608.69093 242.22263 616.3343 249.31693 623.33467 283.69861 615.65516 280.16693 599.36842 259.60745 596.28358 254.06686 581.68794 230.85333 582.96351" fill="#fdadb0"/><path d="m279.23392,610.44948l-.98663,3.02704-38.12444,1.82532s6.82344,14.8949,7.85034,17.90851,58.28493-16.49738,66.49019-20.63873c8.20523-4.14136,2.76852-11.03387,2.76852-11.03387l-41.49396-4.73816,3.49597,13.6499h.00003-.00003Z" fill="#2f2e43"/></g><path d="m92.81234,419.44237l-6.06058,8.57809s-14.5931,24.99423,28.05322,44.20084c42.64632,19.20663,66.78181,20.28458,66.78181,20.28458l56.91208,109.14026,23.35605-12.80066-45.2406-117.25558-57.45889-58.8577-66.34307,6.71008-.00002.00009Z" fill="#2f2e41"/><path d="m633.5556,84.40502l-33.85541-11.16113-31.89496,34.90865c-9.91687,10.8539-15.68707,24.85818-16.29492,39.5477l-3.52338,85.14783,84.45258-15.25356s1.11609-133.1895,1.11609-133.18949Z" fill="#e6e6e6"/><g><path id="uuid-95e9a552-5b77-4d28-a5fe-15ca0c9b439e-78" d="m668.02954,253.13533c8.84338,5.78387,18.99591,5.90924,22.6759.28067s-.50616-14.8782-9.35345-20.66293c-3.50238-2.35925-7.51892-3.84543-11.71344-4.33417l-37.77917-24.03333-10.90021,17.96904,38.40082,21.78484c2.12994,3.64799,5.10278,6.7327,8.66962,8.99586l-.00006.00002Z" fill="#a0616a"/><path d="m583.51776,101.96982h-.00006c-13.84869,1.13684-23.48486,14.26888-20.41449,27.82072l15.76288,69.57413,72.54736,42.41229,8.92889-22.69431-49.48102-36.83173-2.64899-58.54191c-.58527-12.93433-11.79047-22.7985-24.69464-21.73921l.00006.00002Z" fill="#e6e6e6"/></g><circle cx="619.84271" cy="47.38345" r="29.90235" fill="#a0616a"/><path d="m634.06909,8.64267c6.58636,2.31492,10.35522,3.63957,13.80762,6.96546,5.83136,5.61796,6.79382,13.12558,7.68799,20.10133.69958,5.45716,1.60413,12.51293-1.59155,20.57431-1.09058,2.75103-6.38055,15.00798-16.50616,16.55695-1.98853.30415-6.65717.38414-5.31152-.60935,12.45392-9.19445,17.76898-14.74516,17.33319-28.91537-.27069-8.80476-13.72467-18.31097-21.71338-20.01988-3.3653-.71978-7.84558-.06222-11.05829,2.57524-6.71423,5.51205-6.4278,28.30551-13.50769,33.07028-2.91156,1.95954-.9715-11.83406-3.02313-9.59719-4.04803,4.41363-1.45142,11.17274-.724,13.74682,3.4505,12.20973,9.95581,13.40479,13.32599,23.83128,3.63861,11.25683-.9408,21.85506-2.02679,24.36825-1.88898,4.37191-5.1311,11.87501-12.53815,15.47462-9.40186,4.56897-16.81262-1.38073-21.18365,3.71996-2.44354,2.85146-1.12177,5.87135-5.53491,14.74049-1.44067,2.89519-2.16095,4.34296-2.79865,4.29156-3.01776-.24298-7.90369-24.39901-.00146-46.89538,3.31641-9.44092,6.56543-18.69062,15.27441-25.92354,4.60443-3.8239,8.46619-5.19995,9.56537-9.66548,1.57031-6.37959-4.95032-9.10251-6.25745-19.16845-.8938-6.88411-1.52094-16.72975.90973-23.04028,2.29517-5.95933,4.28766-11.13244,9.50299-15.82282,1.25256-1.12659,11.36389-8.78437,22.0849-9.00039,4.93579-.0993,8.56207,6.63031,14.28461,8.64156h.00006l-.00006.00003Z" fill="#2f2e43"/><g><path d="m327.28751,332.99824c.01526.00739.02924.01379.04468.02118-.01135-.00574-.02216-.01123-.03265-.01654-.00409-.00153-.00793-.00311-.01202-.00464Z" fill="#fff"/><path d="m304.86533,350.95808c-.16003-.02417-.30865.03784-.40094.11078.1413-.04059.26813-.07202.36237-.08704.0127-.00806.02576-.01581.03857-.02374Z" fill="#fff"/><path d="m351.04758,399.25593c-12.92474-1.36987-25.84949-2.73969-38.77423-4.1095,5.78564-4.71613,11.07147-10.04736,15.70441-15.89276,3.90143-4.92249,7.44464-10.09955,10.45361-15.61731,3.21991-5.90466,5.97394-12.27313,6.25159-19.08698.25372-6.22693-2.20514-12.6507-7.02826-16.70477-4.43018-3.72382-9.74615-5.56549-15.42969-6.26685-11.49359-1.41833-25.88916,2.63379-31.57227,13.54047-3.50189,6.72058-3.5932,14.9751,1.49762,20.9104,4.35175,5.07367,12.54303,7.04614,18.30389,3.23083,2.17743-1.44208,3.31366-4.48346,1.79376-6.84094-1.40027-2.17188-4.50867-3.33844-6.841-1.79376-.1767.11707-.36176.22174-.54169.33331.03247.00488.06464.00476.09717.01825-.02209-.00916-.07373-.00439-.13574.00549-.02826.01782-.0578.03418-.08557.05261-.42017.27887-.42804.15399-.27679.03442-.22754.06531-.47314.14636-.63812.2027-.16296.00085-.32678.00928-.48956.00549-.1106-.00256-.47498-.06256-.57349-.07129-.09485-.02246-.17688-.04205-.20862-.05023-.20868-.05389-.79413-.35278-1.06671-.37531-.01978-.01038-.04028-.01929-.06-.02979-.18591-.09906-.36969-.2038-.54962-.31317-.17761-.10797-.34595-.23016-.52295-.33862-.00238-.00238-.00348-.0036-.00592-.00598-.3606-.35468-.71594-.70654-1.06506-1.07178-.10266-.21185-.28119-.42114-.39673-.62103-.10785-.1864-.19965-.38074-.30487-.56836-.09296-.16565-.13544-.23749-.15729-.27112-.11713-.43756-.19745-.99231-.24078-1.1983-.02679-.12732-.08362-.33105-.11243-.51202.01324-.19623.02417-.41528.02155-.52655-.0127-.53619.01746-1.06561.05475-1.5993.00085-.00336.00134-.00464.00226-.00812.07605-.29865.11865-.60815.19147-.90833.1319-.54382.29333-1.0799.4798-1.60742.02344-.06635.0495-.15833.07324-.24908.112-.27106.26483-.54205.39215-.78583.25989-.49744.54309-.98206.84869-1.45282.09637-.14844.20245-.35449.32184-.52881.03583-.03198.07239-.06702.10742-.10651.40918-.46063.80792-.91864,1.25189-1.34723.19507-.18823.39545-.37189.59827-.55157.14392-.1275.35028-.29492.46655-.39062.95544-.69293,1.96014-1.31403,3.01282-1.84839.22137-.11237,1.04492-.4668,1.16309-.53064.6377-.24323,1.27606-.48126,1.9292-.68317,1.15662-.35754,2.33398-.64697,3.52167-.88074.55035-.10834,1.12817-.2395,1.6936-.29956.02789-.00281.04205-.00415.07556-.00763.32465-.03363.64832-.0708.97357-.099,2.16327-.18732,4.29486-.10474,6.45331.07751.17072.02759.34155.05389.51196.08362.5462.09521,1.08984.20642,1.62946.33368,1.0672.25159,2.1203.56635,3.14667.95264-.02521-.00952.1333.05011.29449.11206-.20319-.09821-.34979-.17822.01202.00464.15094.05804.30042.11664.29919.12079-.00452.01575-.13574-.04211-.26654-.10425.03796.01923.0603.03033.10883.05505.42944.21857.8642.4223,1.28546.65704.46295.25793.91602.53418,1.35602.82959.16113.10822.31775.22302.47778.33289.00879.00806.01367.01294.02332.02167.71375.64868,1.33868,1.35724,2.01392,2.03607.10699.16541.22302.32568.3291.49182.35211.55127.64087,1.12592.93982,1.7066.00446.00867.00537.01062.00958.01874.07123.20392.15063.44745.16992.50592.22174.6712.3692,1.34784.5257,2.03552.01868.08209.03107.13446.04431.19092.02808.25342.03864.51373.05249.76056.04333.76904.03937,1.53998-.00659,2.30878-.01685.28192-.04883.56201-.06696.84357-.00452.06982-.00732.12354-.00989.17517-.01166.0531-.02411.11108-.03906.18481-.1142.5625-.211,1.1275-.34198,1.68683-.34827,1.48657-.81201,2.94464-1.35065,4.37262-.12854.3407-.26379.67834-.39789,1.01685-.0036.00818-.00513.0116-.00885.02002-.29456.66339-.59686,1.32263-.91418,1.97546-.60858,1.25201-1.26093,2.48291-1.9325,3.70215-1.24854,2.26685-2.58319,4.48627-3.99957,6.65216-.70654,1.08038-1.43359,2.1474-2.1803,3.20044-.35333.49823-.71088.99341-1.073,1.48529-.20105.27307-.40356.54504-.60736.81616-.05103.06793-.35522.46533-.50317.6601-.14508.18463-.32861.41888-.32977.42041-.25244.31836-.50665.63531-.76276.95074-.46924.57782-.94489,1.15039-1.42657,1.71783-.91833,1.08185-1.85895,2.14478-2.82147,3.1875-2.0108,2.17828-4.11658,4.26904-6.31061,6.2627-1.09363.99377-2.20917,1.96368-3.34601,2.90778-.51605.42847-1.03625.85199-1.56073,1.27002-.22742.18121-.4566.36029-.68561.53955-.09796.07428-.34949.26685-.52789.40082-2.35193,1.76691-4.78473,3.42126-7.28467,4.97131-1.81659,1.12634-2.98694,3.51703-2.29779,5.64655.73108,2.25909,2.52771,3.42773,4.82141,3.67084,17.44788,1.84918,34.89575,3.69843,52.34357,5.54767,2.60968.27661,5.11212-2.49719,5-5-.1319-2.94531-2.20428-4.70367-5-5Zm-52.3479-51.12079c-.10229-.05365-.19006-.26801-.26373-.5329.0752.15869.26953.53595.26373.5329Zm35.05719-9.26172c.0119-.00134.06207.13226.11737.29034-.06763-.13947-.13538-.28833-.11737-.29034Zm.1377.33179c.15668.30554.09021.18347,0,0h0Zm-1.4375,14.04156c.07538-.18793.367-.8269,0,0h0Z" fill="#fff"/><path d="m467.39835,332.99837c.01489.0072.02856.01355.0437.02069-.01111-.00568-.02173-.01099-.03192-.01617-.00397-.00153-.00775-.00299-.01178-.00452Z" fill="#fff"/><path d="m444.97595,350.95808c-.16003-.02417-.30853.03778-.40088.11072.14117-.04059.26807-.07196.3623-.08698.01276-.00806.02576-.01581.03857-.02374Z" fill="#fff"/><path d="m491.15826,399.25593c-12.92474-1.36987-25.84955-2.73969-38.77429-4.1095,5.78564-4.71613,11.07153-10.04736,15.70447-15.89276,3.90143-4.92249,7.44464-10.09955,10.45355-15.61731,3.21997-5.90466,5.974-12.27313,6.25159-19.08698.25372-6.22693-2.20514-12.6507-7.02826-16.70477-4.43018-3.72382-9.74615-5.56549-15.42963-6.26685-11.49359-1.41833-25.88922,2.63379-31.57233,13.54047-3.50189,6.72058-3.59314,14.9751,1.49768,20.9104,4.35175,5.07367,12.54297,7.04614,18.30383,3.23083,2.17749-1.44208,3.31366-4.48346,1.79376-6.84094-1.40027-2.17188-4.50861-3.33844-6.84094-1.79376-.1767.11707-.36182.22174-.54175.33331.03247.00488.0647.00476.09723.01825-.02209-.00916-.07373-.00439-.1358.00549-.02826.01782-.0578.03418-.08557.05261-.42017.27887-.42798.15387-.27673.03436-.2276.06531-.47308.14642-.63812.20276-.1629.00085-.32672.00928-.48956.00549-.11066-.00256-.47504-.06256-.57355-.07129-.09485-.02246-.17688-.04205-.20862-.05023-.20862-.05389-.79401-.35272-1.06665-.37531-.01978-.01038-.04028-.01929-.06-.02979-.18597-.09906-.36969-.2038-.54968-.31317-.17767-.10797-.34607-.23035-.52307-.33868-.00232-.00232-.00342-.00354-.0058-.00592-.36047-.35461-.71582-.70654-1.06488-1.07166-.10266-.21191-.28131-.4212-.39691-.62115-.10779-.1864-.19965-.38074-.30487-.56836-.09283-.16547-.13525-.23718-.15717-.27094-.11713-.43756-.19751-.99243-.24084-1.19849-.02679-.12732-.08362-.33105-.11243-.51208.01324-.19623.02417-.41522.02155-.52649-.0127-.53613.01746-1.06543.05469-1.599.00092-.00348.0014-.00482.00232-.00842.07599-.29865.11859-.60815.19141-.90833.13196-.54382.29333-1.0799.4798-1.60742.02344-.06628.0495-.1582.07324-.2489.112-.27112.26483-.54224.39221-.78601.25983-.49744.54303-.98206.84869-1.45282.09637-.14844.20245-.35449.32184-.52881.03583-.03198.07239-.06702.10742-.10651.40912-.46063.80792-.91864,1.25189-1.34723.19501-.18823.39545-.37189.59827-.55157.14404-.12756.35071-.29523.46686-.39087.95532-.69281,1.9599-1.31384,3.01251-1.84814.22137-.11243,1.04547-.4671,1.16315-.5307.63763-.24329,1.276-.4812,1.92908-.68311,1.15662-.35754,2.33405-.64697,3.52167-.88074.55035-.10834,1.12811-.2395,1.69348-.29956.02795-.00287.04218-.00415.07574-.00763.32465-.03363.64832-.0708.97351-.099,2.16327-.18732,4.29486-.10474,6.45337.07751.17065.02759.34149.05389.51196.08362.54614.09521,1.08984.20642,1.62946.33368,1.0672.25159,2.1203.56635,3.14667.95264-.02527-.00952.13342.05023.29468.11218-.20331-.09821-.35022-.17841.01178.00452.15094.05804.30048.11664.29926.12079-.00458.01581-.13629-.0423-.26733-.10461.03815.01929.06073.03058.10956.05542.42944.21857.8642.4223,1.28552.65704.46289.25793.91602.53418,1.35596.82959.16132.10828.31799.22321.47803.33307.00873.008.01355.01282.02313.02148.71368.64868,1.33868,1.35724,2.01392,2.03607.10706.16541.22296.32562.32904.49182.35217.55127.64087,1.12592.93982,1.7066.00452.00879.00549.01074.00977.01904.07123.20386.15045.44714.1698.50562.22168.6712.36914,1.34784.52563,2.03552.01874.08234.03113.13489.04443.19147.02802.25323.03851.51337.05243.76001.04333.76904.03931,1.53998-.00659,2.30878-.01685.28192-.04883.56201-.06702.84357-.00452.06982-.00732.12354-.00989.17517-.01166.0531-.02411.11108-.03906.18481-.11414.5625-.21094,1.1275-.34198,1.68683-.34827,1.48657-.81201,2.94464-1.35065,4.37262-.12866.34106-.26385.67908-.39832,1.01794-.00342.00775-.00482.01093-.00836.01892-.29456.66339-.59686,1.32263-.91425,1.97546-.60858,1.25201-1.26093,2.48291-1.93243,3.70215-1.24854,2.26685-2.58319,4.48627-3.99963,6.65216-.70654,1.08038-1.43359,2.1474-2.1803,3.20044-.35327.49823-.71082.99341-1.07294,1.48529-.20105.27307-.40363.54504-.60736.81616-.05084.06769-.35315.46265-.50165.65808-.14532.18494-.33014.4209-.33136.42242-.25238.31836-.50659.63531-.76276.95074-.46924.57782-.94489,1.15039-1.42657,1.71783-.91833,1.08185-1.85889,2.14478-2.82141,3.1875-2.0108,2.17828-4.11658,4.26904-6.31061,6.2627-1.09369.99377-2.20917,1.96368-3.34607,2.90778-.51599.42847-1.03619.85199-1.56073,1.27002-.22778.18152-.45734.3609-.68671.54047-.099.07507-.34924.26654-.52673.3999-2.35199,1.76691-4.78473,3.42126-7.28467,4.97131-1.81659,1.12634-2.98694,3.51703-2.29779,5.64655.73102,2.25909,2.52771,3.42773,4.82135,3.67084,17.44788,1.84918,34.89575,3.69843,52.34363,5.54767,2.60962.27661,5.11212-2.49719,5-5-.1319-2.94531-2.20435-4.70367-5-5Zm-52.3479-51.12079c-.10223-.05365-.19-.26788-.26367-.53265.07526.15881.26947.53571.26367.53265Zm35.05713-9.26172c.01196-.00134.06219.13245.11755.29071-.06775-.13953-.13556-.2887-.11755-.29071Zm.138.33228c.15619.30438.09003.18304,0,0h0Zm-1.43866,14.04315c.07434-.18591.36975-.83325,0,0h0Z" fill="#fff"/><path d="m391.29144,325.17207c-1.91278-.14008-3.77008.07361-5.66382.33783-.75256.10504-1.42175.47388-1.97968.99445-5.34351,1.13464-10.30499,3.98792-14.21283,7.80872-5.50641,5.38373-8.81372,12.75702-9.97443,20.31042-1.21509,7.90729-.80609,16.02869,1.03796,23.81506,1.72156,7.26904,5.02112,14.31647,10.24023,19.73602,5.12634,5.32312,12.23193,8.57043,19.59277,9.04419,7.33191.47192,14.60638-2.63275,19.33612-8.25317,4.72186-5.61108,7.29987-12.58276,9.05463-19.62262,2.04156-8.19037,2.86414-16.60388,1.58881-24.97504-2.23132-14.6463-13.65515-28.07056-29.01978-29.19586Zm-19.01794,57.35657c-.09833-.22363-.27557-.70953,0,0h0Zm38.51447-15.5553c-.06677.79236-.15533,1.58282-.25366,2.37201-.03455.23572-.09564.67145-.10748.74713-.09271.59155-.19336,1.18188-.30127,1.77087-.59216,3.23315-1.38702,6.43872-2.37885,9.57275-.4162,1.31519-.82764,2.70203-1.40582,3.96631-.03235.06421-.0647.12976-.08661.17682-.15991.34381-.31195.69086-.47552,1.03302-.37915.79297-.78503,1.57336-1.2229,2.33563-.3714.64667-.76489,1.28107-1.18463,1.89758-.13885.20392-.28754.4021-.42487.60699-.02917.04352-.04962.07513-.07178.10901-.01532.0177-.02618.02972-.04346.04993-.47821.55798-.95123,1.11414-1.46985,1.63605-.25787.25952-.5224.51245-.79376.75793-.18097.16376-.36493.32416-.55188.48114-.4256.34509-.37585.31232.14917-.09833.08032.30524-2.48065,1.62701-3.26941,1.95746-.13037.03125-.26129.06543-.33563.09106-.33667.11603-.67688.22168-1.0199.3172-.4549.12671-1.64355.59607-2.08356.45111.20813-.02704.41626-.05414.62433-.08118-.23584.02814-.47211.052-.7088.07153-.35577.02942-.71234.04913-1.06915.05963-.71704.02106-1.43506.00415-2.15051-.04779-.25708-.01868-.51282-.04816-.76923-.07245-.0188-.00397-.03137-.00684-.05212-.01111-.83374-.17261-1.66266-.33093-2.48322-.56348-.70679-.20026-1.38995-.45477-2.08405-.69226-.03699-.01263-.06268-.02106-.09357-.03143-.245-.11292-.4917-.22168-.73462-.33948-1.16956-.5672-2.74066-1.25958-3.76544-2.17633-.08325-.09418-.21057-.22723-.30835-.30829-.23438-.19421-.46545-.39215-.69238-.59515-.56873-.50873-1.11163-1.04578-1.63354-1.60229-.46967-.50073-.9082-1.02655-1.34454-1.55548-.12921-.16528-.33081-.42114-.38391-.49524-.23035-.32135-.45459-.64716-.67285-.97681-.87543-1.32184-1.65344-2.70728-2.3418-4.13519-.17291-.35876-.33362-.72266-.50159-1.08362-.00366-.00787-.00861-.0199-.0127-.02905-.32141-.83075-.64429-1.65845-.92767-2.50378-1.00183-2.98822-1.88165-6.22742-2.16931-9.37555-.01172-.12524-.02264-.23755-.0285-.28857-.03052-.26489-.0592-.53009-.08649-.79541-.08856-.86139-.15979-1.72467-.2132-2.58893-.10718-1.73492-.1413-3.47443-.09064-5.21198.02948-1.01215.08881-2.02362.18018-3.0321.03912-.43127.08893-.86108.13501-1.29163.04034-.2699.08289-.53967.12842-.80884.31079-1.83612.74286-3.65277,1.31604-5.42505.1319-.40784.27112-.81323.41797-1.21588.05481-.15027.48267-1.17181.45605-1.14136.30499-.66614.62268-1.32568.97198-1.97015.42834-.79022.89343-1.55988,1.39758-2.30414.19427-.2868.40216-.69122.65668-.92706-.17487.16199-.26666.24768-.32147.29907.11786-.11194.37537-.36005.47583-.48114,1.13782-1.37128,2.41223-2.58124,3.76721-3.7334.02649-.02252.04327-.03735.06567-.05664.03705-.02411.07373-.04803.12268-.08075.31323-.20959.61621-.43402.93176-.64075.73242-.47986,1.48975-.92181,2.26947-1.32037.31158-.1593.62903-.30444.9447-.4549.19763-.07678.39581-.15216.59558-.22321.69916-.2478,1.41046-.46143,2.13165-.63519.36017-.08685.72266-.164,1.08704-.23102.09839-.01807.19739-.03217.29602-.04877.05713-.00574.12415-.01263.2121-.02209.87567-.03546,1.73535-.08453,2.6131-.04865.89294.03656,1.76965-.23376,2.53619-.70325.15704.02795.31427.05475.4707.08691.76099.15643,1.51294.35364,2.25317.58954.34265.10919.68268.22662,1.01984.35175.05524.02051.13611.04303.22125.06519.57556.15027,1.2005.57666,1.71191.85315.58887.31836,1.16522.65912,1.72815,1.02148.30847.19855.61285.4035.91302.61438.16766.1178.33319.23853.49823.35999,1.03204.86414,2.02521,1.75513,2.94733,2.7381.51013.54376.98621,1.1131,1.46545,1.68365.01874.02234.03064.03595.04706.05536.0235.03497.04584.06848.07703.11401.2453.35803.50256.70715.74261,1.06903.78516,1.18347,1.48621,2.42267,2.08972,3.7085.02393.05096.07385.14935.12805.25433.1731.36279.29987.76984.435,1.14355.30029.83057.5686,1.67267.80597,2.52338.23657.84784.44202,1.70435.61804,2.56677.08795.43103.16846.86359.24188,1.29736.01392.08228.073.50385.10718.7334.19226,1.64996.29822,3.30908.31061,4.97021.01221,1.63354-.05695,3.26746-.19415,4.8952Z" fill="#fff"/><path d="m552.67371,351.75551c1.61963-6.47968-.35443-13.09454-4.95685-17.86755-4.32233-4.48254-10.33307-6.87665-16.43915-7.50745-8.18176-.84521-16.31738,1.87573-23.9325,4.51996-2.46515.85596-4.36163,3.46399-3.49219,6.15057.78949,2.43976,3.50513,4.41077,6.15057,3.49219,2.92651-1.01617,5.8587-2.026,8.85059-2.83539,1.44971-.39221,2.91254-.73834,4.38983-1.00995.30933-.05688.62-.10553.92957-.16095.10156-.01819.18311-.03308.25323-.0462.01721-.00165.02832-.0025.0484-.00458.85748-.08734,1.71045-.17596,2.57208-.21429,1.41815-.06305,2.8172.00293,4.23041.10864.16272.01221.24774.01691.30389.01898.18164.04602.35864.09882.46484.1203.58264.11786,1.16058.25958,1.73181.42395.5379.15479,1.06055.34717,1.58984.52612-.03094-.02209-.05554-.03784-.09045-.0639.0528.03943.13318.07135.20795.10486.07599.02612.13641.05634.18542.08557.09119.03528.18524.07007.25824.10455,1.0708.5061,2.10162,1.09937,3.07123,1.78003.09552.0683.1911.13666.28662.20502.05981.04456.08728.06494.12842.09558.10242.09637.19635.1922.22595.21838.39032.3446.76514.70642,1.12311,1.08453.19769.2088.3819.4292.57678.64026.62653.67877-.0788-.16699-.13989-.20752.39655.26294.79767,1.17029,1.02429,1.57208.13971.24774.26135.50421.39679.75391.1712.31561.20447.36145.17834.29504.12183.40179.21161.89569.25909,1.08411.05676.22546.09973.45319.15204.67969.00275.01184.00452.01855.00714.02972.02496.65259.06909,1.28931.02893,1.94519-.00769.12628-.05865.3764-.07172.55975-.00824.03986-.01428.08014-.02295.11987-.11359.5437-.25787,1.08002-.43048,1.60797-.00464.01428-.03375.10638-.06921.21893.03046-.13702-.2417.5946-.27094.65424-.27545.56134-.58325,1.10669-.91797,1.63477-.16779.26471-.36194.51453-.52686.78033-.00793.01276-.00635.01251-.01306.02362-.0047.00531-.00555.00586-.01044.01135-.33502.37708-.65967.76117-1.01373,1.12134-.11066.11261-.62415.71497-1.01184,1.04956.02826-.03949-.02551-.02698-.26404.13489-.31134.2113-.6167.42975-.93573.6297-.69495.43542-1.41882.7951-2.15094,1.16064-.00604.00305-.01532.00659-.02209.00977.02905-.01007.0459-.01617.07886-.02753-.02985.01031-.05927.02155-.08899.03204-.151.06903-.42639.15912-.38013.13696-.23035.08569-.46008.17285-.69409.25006-.71875.237-1.45026.43469-2.18884.59924-.33673.07501-.67462.1438-1.01428.20435-.20404.03705-.40863.07074-.61371.10114-.37329.05664-.27325.04309.30011-.04053-.54169.21893-1.3924.14252-1.99139.15533-2.48389-.54242-5.03339-.76416-7.56769-.62439-2.50122.13794-4.5697,1.79761-4.91071,4.33539-.30768,2.28992,1.13184,5.01288,3.58154,5.48602,2.51276.48529,5.03558.75116,7.53998.75745.43207.11359.86157.23694,1.28693.3736.46851.15057,1.19653.30322,1.62689.57758.06403.03894.12604.07483.17719.09888.32385.15216.64453.31128.96161.47723.52777.27618,1.04572.57129,1.55219.88483.30341.18781.60272.38214.89758.58307.25439.17334,1.5979.91235.42145.27417,1.04095.5647,2.05713,1.80249,2.83575,2.6756.19324.21667.57794.53992.6875.80945-.1153-.15143-.23065-.3028-.34595-.45416.14227.18829.28131.37897.41724.57196.40765.58002.78711,1.17987,1.13361,1.79846.17383.31024.33954.625.4967.94403.05157.10706.10309.21411.15466.32111.22894.50854.2016.43115-.08209-.23199.29791.35632.42157,1.12921.56012,1.58356.19586.64215.35626,1.29529.48364,1.95435.02026.11011.04059.22015.06085.3302.01697.10657.02917.18079.03882.23792.01508.19385.02722.37628.03137.4325.026.34875.15039,4.02081-.08765,4.03162-.0271.00122.22351-1.30188.0379-.32892-.06311.33087-.11694.66266-.18713.99231-.16327.76727-.36816,1.5257-.61407,2.27063-.08765.26556-.18109.52899-.27911.79089-.08923.23834-.09808.36456-.07764.41144-.21368.45959-.6087,1.01617-.75317,1.27332-.27173.48364-.56335.95618-.87488,1.41528-.15063.22198-.36115.65417-.58044.80969.44574-.57263.49921-.65094.16034-.23486-.14264.16888-.28821.33514-.43683.49872-.40894.45007-.84045.87878-1.29321,1.28461-.04395.03937-.13147.13177-.22595.2276-.15125.11212-.30341.22302-.45837.33008-.54193.37421-1.10577.71747-1.68933,1.02283-.17865.09351-.36279.17651-.54163.26929-.0968.0365-.19287.07495-.29041.10956-.59424.211-1.20093.38684-1.81537.52856-.21106.04871-.42365.0874-.63593.12817.03387.00592.06366.00818.10004.0166-.03961-.00916-.09039-.00458-.13318-.00989-.0863.01666-.17249.03406-.25861.05212-.32123.06732-.36261-.01373-.20605-.06-.44037.03436-.92694.13611-1.29541.14099-.63171.00836-1.26379-.01617-1.89331-.07147-.28107-.14294-.89587-.14734-1.18359-.21179-.61835-.13861-1.22992-.30768-1.83154-.50684-.26886-.08899-.53253-.19037-.79852-.28662-.11487-.05322-.23022-.10535-.34399-.16095-.56409-.27576-1.11407-.58044-1.646-.914-.26526-.16632-.51825-.34991-.78101-.51953-.02502-.01831-.03101-.02228-.05255-.03796-.05505-.04584-.11139-.09003-.16583-.1366-.51184-.43835-.99567-.90845-1.4472-1.40863-.06714-.0744-.31128-.4248-.4408-.539-.06781-.09875-.13715-.19647-.20251-.29688-.40216-.61755-.74689-1.26453-1.05634-1.9328-1.10248-2.38062-4.72052-3.16083-6.841-1.79376-2.45343,1.58179-2.97302,4.29443-1.7937,6.84094,2.72937,5.89374,8.77502,10.10364,15.05273,11.40222,6.98254,1.4444,13.94543-.091,19.44366-4.67743,5.3009-4.42188,8.14105-11.40826,8.45209-18.19794.32611-7.11829-2.61804-14.09491-7.70343-19.04083-.422-.41046-.8609-.80353-1.30811-1.18726,5.15936-2.88629,9.25635-8.01227,10.68793-13.73956Zm-21.67517-15.42114c.10065-.02991.26996-.00397.44562.03455-.18237-.02075-.41943-.0423-.44562-.03455Zm8.11041,3.21332c.06238.01569.1814.1167.29224.22009-.07483-.0564-.16687-.12579-.29224-.22009Zm3.42267,4.03827c.10138.07739.19159.29608.2691.55157-.04517-.11389-.25671-.54205-.2691-.55157Zm-7.1853,53.37012c.13013-.09924.26031-.19861.39044-.29785-.14618.14728-.30988.30011-.39044.29785Zm5.51697-14.75775c.01538.00061.03516.18127.05322.38922-.01385-.10352-.03094-.22858-.05322-.38922Zm-2.22021-26.3551c-.00299.00165-.00562.00269-.00854.00427.00287-.0014.00568-.00275.00854-.00427Z" fill="#fff"/><path d="m530.2868,399.03908c.01105-.00214.02209-.00458.03314-.00671-.23126-.04034-.40222-.02936-.4978-.00116.16711-.01306.32135-.00983.46466.00787Z" fill="#fff"/><path d="m535.51611,357.5937c-.25281.08789-.36694.13031-.39026.14148.12616-.04694.25305-.09204.38013-.13696.00323-.00146.00708-.00305.01013-.00452Z" fill="#fff"/><path d="m535.4765,337.50709c-.03632-.01208-.0722-.02496-.1084-.03723.45215.32233.49451.24103.30292.12653-.0683-.02649-.12079-.05658-.18542-.08557-.00336-.00116-.00568-.00256-.00909-.00372Z" fill="#fff"/></g><path d="m106.83654,300.21532s-6.11685-1.60971-17.7067,13.19952-6.43881,120.40549-6.43881,120.40549l84.02632-18.99445-16.01788-94.55334-10.3812-21.34503-33.48175,1.28778h.00003v.00003Z" fill="#e6e6e6"/><g><path id="uuid-e9673029-d207-4f06-bf34-a369a7d7c1cd-79" d="m194.39331,402.05125l-31.8194-2.78561-1.44568,12.62424,31.93304,3.57437c2.56427,1.61502,5.47806,2.59247,8.49756,2.85052,7.54868.74957,14.052-2.53552,14.52902-7.33783s-5.2536-9.30246-12.79968-10.05075c-3.01224-.34076-6.06232.04504-8.89487,1.12506Z" fill="#fdadb0"/><polygon points="84.54834 327.96629 101.36355 404.20189 188.28729 418.36723 191.50668 396.47532 132.26978 382.30995 112.95336 315.34648 84.54834 327.96629" fill="#e6e6e6"/></g></svg>